<?xml version="1.0" encoding="UTF-8"?>
<svg version="1.1" xmlns="http://www.w3.org/2000/svg" width="325" height="356">
<path d="M0 0 C107.25 0 214.5 0 325 0 C325 117.48 325 234.96 325 356 C217.75 356 110.5 356 0 356 C0 238.52 0 121.04 0 0 Z " fill="#FBFBFB" transform="translate(0,0)"/>
<path d="M0 0 C146.55263158 0 146.55263158 0 163 5 C163.87011719 5.26039062 164.74023438 5.52078125 165.63671875 5.7890625 C167.78280771 6.47071728 169.88937659 7.21605416 172 8 C172.74894531 8.26167969 173.49789062 8.52335937 174.26953125 8.79296875 C194.90590761 16.42742786 214.76945729 31.74391898 224.375 51.8828125 C227.05729809 58.12554199 229.34332344 64.41073278 231 71 C231.27972656 72.03125 231.55945313 73.0625 231.84765625 74.125 C234.05590542 83.65641967 234.26919543 93.06237663 234.25 102.8125 C234.24883682 103.82842224 234.24883682 103.82842224 234.24765015 104.86486816 C234.20948509 116.37154472 234.20948509 116.37154472 233 120 C231.43765625 120.05607422 231.43765625 120.05607422 229.84375 120.11328125 C204.08549602 121.2136986 180.89993157 128.00516793 161 145 C160.19046875 145.66515625 159.3809375 146.3303125 158.546875 147.015625 C140.50170112 162.40384076 127.21354449 187.20314184 125 211 C123.26656745 237.81887919 127.97403143 265.32116666 145.265625 286.81640625 C147.46149973 289.26249119 149.72415912 291.62864025 152 294 C153.10878978 295.35038388 154.21319776 296.70438146 155.3125 298.0625 C159.80563941 303.2517596 165.44933131 307.03076301 171 311 C171.67804688 311.54011719 172.35609375 312.08023437 173.0546875 312.63671875 C175.26796415 314.18779014 177.40550132 315.06366767 179.9375 316 C182.62549139 316.99709109 184.97651653 317.98553115 187.421875 319.4921875 C190.32439872 321.1897241 193.09775823 322.1471025 196.3125 323.125 C197.38113281 323.45757812 198.44976562 323.79015625 199.55078125 324.1328125 C206.39940059 325.85466244 213.07417798 326.14352206 220.09375 326.09765625 C221.34194519 326.09553383 221.34194519 326.09553383 222.61535645 326.09336853 C225.2436093 326.08782167 227.87177338 326.07527945 230.5 326.0625 C232.29426959 326.05747812 234.08854054 326.05291642 235.8828125 326.04882812 C240.25524195 326.03786972 244.62760598 326.02064248 249 326 C249.33555908 326.61488281 249.67111816 327.22976563 250.0168457 327.86328125 C250.46116943 328.67152344 250.90549316 329.47976563 251.36328125 330.3125 C251.80196533 331.11300781 252.24064941 331.91351563 252.69262695 332.73828125 C254.62353462 336.07869742 256.49092115 339.24546057 260 341 C260 341.66 260 342.32 260 343 C250.00375633 343.32541791 240.00878545 343.57363614 230.00831032 343.72537041 C225.36349145 343.79822865 220.72231288 343.89688542 216.07958984 344.05615234 C211.5923579 344.20910886 207.10860759 344.29213576 202.61896896 344.3282814 C200.91294896 344.35400892 199.2071049 344.40426207 197.50258255 344.48022079 C184.51621667 345.03552664 184.51621667 345.03552664 180.33455658 341.65271759 C177.32710087 338.34975447 175.14233696 334.67264157 173.02492905 330.75964737 C171.40361914 327.97610473 169.39557742 325.64173739 167.3125 323.1875 C161.07936884 315.69900967 155.21456897 307.96469456 149.37890625 300.1640625 C143.06806757 291.77033617 136.61391991 283.49018987 130.11474609 275.24194336 C126.12980839 270.17936686 122.19910204 265.07641962 118.27734375 259.96484375 C114.69957375 255.30699223 111.09068089 250.67350498 107.47265625 246.046875 C102.99085947 240.30491531 98.56546852 234.5204396 94.14599609 228.73046875 C89.11430968 222.14035073 84.05551707 215.5721722 79 209 C78.67 253.22 78.34 297.44 78 343 C52.26 343 26.52 343 0 343 C0 229.81 0 116.62 0 0 Z " fill="#010101" transform="translate(7,9)"/>
<path d="M0 0 C1.19947266 -0.02449219 2.39894531 -0.04898438 3.63476562 -0.07421875 C12.23173645 -0.10205568 19.3825241 1.44090665 27.4375 4.375 C28.32493896 4.67631836 29.21237793 4.97763672 30.12670898 5.28808594 C36.82687246 7.59592811 42.48743195 11.44009926 48.3359375 15.3515625 C51.22175012 17.33298656 51.22175012 17.33298656 53.6484375 18.42578125 C55.86986518 19.60439899 57.08157904 21.00805613 58.6875 22.9375 C60.53832244 25.14743725 62.37424985 27.31010206 64.38671875 29.375 C78.54491113 44.06169072 84.83809196 63.93401977 84.8125 83.9375 C84.81117065 85.79507935 84.81117065 85.79507935 84.80981445 87.69018555 C84.60718271 103.41214623 80.47781662 115.29436677 73.4375 129.375 C64.8575 129.375 56.2775 129.375 47.4375 129.375 C47.4375 130.035 47.4375 130.695 47.4375 131.375 C46.52871094 131.54322266 46.52871094 131.54322266 45.6015625 131.71484375 C35.7568962 134.03212674 29.22105507 140.07290423 23.9375 148.5625 C20.27921806 155.25222344 18.81905969 161.93809357 17.4375 169.375 C14.52602699 170.20874188 11.93495693 170.50341644 8.91015625 170.5078125 C7.60824341 170.51143799 7.60824341 170.51143799 6.2800293 170.51513672 C2.51289641 170.49462541 -1.25370736 170.46740669 -5.02050781 170.41210938 C-7.10466976 170.38168365 -9.18907196 170.36815128 -11.2734375 170.359375 C-22.49591953 169.96361997 -32.68925907 165.4718508 -42.5625 160.375 C-42.5625 159.715 -42.5625 159.055 -42.5625 158.375 C-43.44292969 158.1275 -44.32335937 157.88 -45.23046875 157.625 C-58.11566759 152.79116222 -68.25712936 139.11921373 -74.5625 127.375 C-75.22378906 126.18970703 -75.22378906 126.18970703 -75.8984375 124.98046875 C-79.41411356 118.38591274 -81.61686533 111.57474488 -83.5625 104.375 C-83.79066406 103.57707031 -84.01882812 102.77914062 -84.25390625 101.95703125 C-89.26587344 81.593724 -84.06413882 59.00572727 -73.71484375 41.1953125 C-66.35946715 29.70162263 -57.75339545 21.13764542 -46.5625 13.375 C-45.52222656 12.64539063 -44.48195312 11.91578125 -43.41015625 11.1640625 C-40.3636888 9.2500953 -38.11418764 8.71325597 -34.5625 8.375 C-34.5625 7.715 -34.5625 7.055 -34.5625 6.375 C-30.53056084 4.49342839 -26.50794117 3.7092146 -22.16015625 2.9375 C-19.4977729 2.42312819 -19.4977729 2.42312819 -16.79101562 1.36083984 C-11.27910477 -0.32224364 -5.72335402 0.00601509 0 0 Z " fill="#010101" transform="translate(234.5625,147.625)"/>
<path d="M0 0 C27.65930233 0 27.65930233 0 36.8125 1.4375 C37.77607422 1.57220703 38.73964844 1.70691406 39.73242188 1.84570312 C43.29414155 2.35737273 46.57989684 2.85996561 50 4 C50 4.66 50 5.32 50 6 C50.70125 6.0825 51.4025 6.165 52.125 6.25 C59.07238775 8.06236202 64.01806811 13.24522663 68 19 C74.63619769 32.30651464 76.14144009 45.87218355 71.98046875 60.25 C68.44946685 70.15368661 63.94790136 77.46052944 54.96484375 83.1171875 C53 84 53 84 49 84 C49 84.66 49 85.32 49 86 C32.36256051 89.83414243 17.61584142 89 0 89 C0 59.63 0 30.26 0 0 Z " fill="#FDFDFD" transform="translate(85,71)"/>
<path d="M0 0 C4.29 0 8.58 0 13 0 C13 0.66 13 1.32 13 2 C13.66 2.04125 14.32 2.0825 15 2.125 C21.79555311 4.10703632 26.62826855 8.93088339 30 15 C32.36003876 22.08011628 32.11654407 30.61575208 29.0625 37.4375 C25.53122275 43.52694684 20.34088015 47.32955993 14.125 50.4375 C6.05346432 51.89037642 -0.02664799 51.73184967 -7.125 47.38671875 C-8.95258535 46.03506709 -10.51950408 44.72570306 -12 43 C-12 42.34 -12 41.68 -12 41 C-12.66 41 -13.32 41 -14 41 C-18.53347655 33.16760971 -19.20422875 25.50498567 -17.5625 16.63671875 C-15.52680216 10.08431634 -10.57316651 5.71544434 -5 2 C-2.3125 1.875 -2.3125 1.875 0 2 C0 1.34 0 0.68 0 0 Z " fill="#050505" transform="translate(288,293)"/>
<path d="M0 0 C3.74491852 1.45947574 4.9062583 3.1486033 6.8125 6.625 C14.01414014 18.38974834 24.27048216 28.78355379 36 36 C36.97066406 36.76376953 36.97066406 36.76376953 37.9609375 37.54296875 C40.21436707 39.15317801 42.34383133 40.04086212 44.9375 41 C47.62549139 41.99709109 49.97651653 42.98553115 52.421875 44.4921875 C55.32439872 46.1897241 58.09775823 47.1471025 61.3125 48.125 C62.38113281 48.45757812 63.44976562 48.79015625 64.55078125 49.1328125 C71.39940059 50.85466244 78.07417798 51.14352206 85.09375 51.09765625 C86.34194519 51.09553383 86.34194519 51.09553383 87.61535645 51.09336853 C90.2436093 51.08782167 92.87177338 51.07527945 95.5 51.0625 C97.29426959 51.05747812 99.08854054 51.05291642 100.8828125 51.04882812 C105.25524195 51.03786972 109.62760598 51.02064248 114 51 C114.33555908 51.61488281 114.67111816 52.22976563 115.0168457 52.86328125 C115.46116943 53.67152344 115.90549316 54.47976563 116.36328125 55.3125 C116.80196533 56.11300781 117.24064941 56.91351563 117.69262695 57.73828125 C119.62353462 61.07869742 121.49092115 64.24546057 125 66 C125 66.66 125 67.32 125 68 C115.00375633 68.32541791 105.00878545 68.57363614 95.00831032 68.72537041 C90.36349145 68.79822865 85.72231288 68.89688542 81.07958984 69.05615234 C76.5923579 69.20910886 72.10860759 69.29213576 67.61896896 69.3282814 C65.91294896 69.35400892 64.2071049 69.40426207 62.50258255 69.48022079 C49.51621667 70.03552664 49.51621667 70.03552664 45.33455658 66.65271759 C42.32710087 63.34975447 40.14233696 59.67264157 38.02492905 55.75964737 C36.40361914 52.97610473 34.39557742 50.64173739 32.3125 48.1875 C26.08831807 40.70976128 20.22712213 32.9896995 14.40625 25.1953125 C11.07887165 20.75788989 7.66790788 16.38484781 4.26171875 12.0078125 C2.04966789 9.0660523 0.00972617 6.08127353 -2 3 C-1.34 3 -0.68 3 0 3 C0 2.01 0 1.02 0 0 Z " fill="#0C0C0C" transform="translate(142,284)"/>
<path d="M0 0 C3.81136387 1.47033218 5.02620788 3.30182287 7 6.8125 C11.40220012 14.07564856 17.12263272 19.92961573 23 26 C21.25 27.125 21.25 27.125 19 28 C14.76752563 26.9227971 12.64478103 23.29279862 10.1875 19.9375 C9.30882886 18.7654487 8.42992114 17.59357473 7.55078125 16.421875 C7.12104004 15.84373047 6.69129883 15.26558594 6.24853516 14.66992188 C4.4895046 12.3172099 2.68431803 10.0016583 0.875 7.6875 C0.31554687 6.96949219 -0.24390625 6.25148438 -0.8203125 5.51171875 C-1.20960938 5.01285156 -1.59890625 4.51398438 -2 4 C-1.34 3.67 -0.68 3.34 0 3 C0 2.01 0 1.02 0 0 Z " fill="#151515" transform="translate(142,284)"/>
<path d="M0 0 C0.66 0.33 1.32 0.66 2 1 C1.29875 1.680625 0.5975 2.36125 -0.125 3.0625 C-2.80694465 5.71405434 -5.14592558 8.58206583 -7.47265625 11.546875 C-9.26556821 13.25266336 -10.58749134 13.60569751 -13 14 C-9.66258296 8.19579645 -5.09057916 4.28565853 0 0 Z " fill="#CCCCCC" transform="translate(272,281)"/>
<path d="M0 0 C0 3 0 3 -2.25 5.4375 C-3.1575 6.283125 -4.065 7.12875 -5 8 C-6.1446875 9.1446875 -6.1446875 9.1446875 -7.3125 10.3125 C-7.869375 10.869375 -8.42625 11.42625 -9 12 C-9.66 11.67 -10.32 11.34 -11 11 C-9.73347137 9.53792657 -8.46161082 8.08047074 -7.1875 6.625 C-6.47980469 5.81289062 -5.77210938 5.00078125 -5.04296875 4.1640625 C-3 2 -3 2 0 0 Z " fill="#2B2B2B" transform="translate(179,168)"/>
<path d="M0 0 C0.33 0.99 0.66 1.98 1 3 C-1.60213075 7.39231845 -5.00076875 10.67667408 -10 12 C-3.84965831 3.55353075 -3.84965831 3.55353075 0 0 Z " fill="#CBCBCB" transform="translate(162,158)"/>
<path d="M0 0 C0.66 0.33 1.32 0.66 2 1 C1.50628906 1.45890625 1.01257813 1.9178125 0.50390625 2.390625 C-0.13675781 3.00421875 -0.77742188 3.6178125 -1.4375 4.25 C-2.07558594 4.85328125 -2.71367187 5.4565625 -3.37109375 6.078125 C-5.14058786 7.87670597 -5.14058786 7.87670597 -5.53515625 10.171875 C-5.68855469 10.77515625 -5.84195312 11.3784375 -6 12 C-6.99 12.33 -7.98 12.66 -9 13 C-7.68554313 7.01191871 -4.38808974 3.96570677 0 0 Z " fill="#2D2D2D" transform="translate(280,297)"/>
<path d="M0 0 C0.53625 0.226875 1.0725 0.45375 1.625 0.6875 C-4.125 4.5625 -4.125 4.5625 -6.375 5.6875 C-6.375 5.0275 -6.375 4.3675 -6.375 3.6875 C-7.035 3.3575 -7.695 3.0275 -8.375 2.6875 C-2.95961538 -0.38942308 -2.95961538 -0.38942308 0 0 Z " fill="#BBBBBB" transform="translate(195.375,137.3125)"/>
<path d="M0 0 C0.99 0.33 1.98 0.66 3 1 C2.67 2.65 2.34 4.3 2 6 C0.68 5.34 -0.64 4.68 -2 4 C-1.34 3.67 -0.68 3.34 0 3 C0 2.01 0 1.02 0 0 Z " fill="#0E0E0E" transform="translate(142,284)"/>
</svg>
