<?xml version="1.0" encoding="utf-8"?>
<!-- Generator: Adobe Illustrator 27.9.1, SVG Export Plug-In . SVG Version: 6.00 Build 0)  -->
<svg version="1.1" id="Layer_1" xmlns="http://www.w3.org/2000/svg" xmlns:xlink="http://www.w3.org/1999/xlink" x="0px" y="0px"
	 viewBox="0 0 379.1 471.2" style="enable-background:new 0 0 379.1 471.2;" xml:space="preserve">
<path d="M220.5,43v32.6c-3.4-0.3-6.9-0.4-10.4-0.4c-59.4,0-107.5,43.2-107.5,96.4v224.5H71.7V159.6c0-27.5,11.6-52.8,30.9-72.8
	c25.9-26.7,65.8-43.9,110.6-43.9C215.7,42.9,218.1,42.9,220.5,43z"/>
<path d="M296.6,122c-17.8-17.1-45.3-28.1-76.1-28.1h-2.4c-30.8,0-58.3,11-76.1,28.1c-13.3,12.8-21.3,29-21.3,46.6v154.4
	c0,17.6,8,33.8,21.3,46.6c17.8,17.1,45.3,28.1,76.1,28.1h2.4c30.8,0,58.3-11,76.1-28.1c13.3-12.8,21.3-29,21.3-46.6V168.5
	C317.9,150.9,309.9,134.8,296.6,122z M223.1,376.9h-0.5c-1,0-2.1,0-3.1-0.1c-0.2,0-0.4,0-0.5,0c-1,0.1-2,0.1-3.1,0.1h-0.5
	c-40.6-0.2-73.5-27.7-73.5-61.6V176.2c0-33.9,32.9-61.4,73.5-61.6h0.5c1,0,2,0,3.1,0.1c0.2,0,0.4,0,0.5,0c1-0.1,2-0.1,3.1-0.1h0.5
	c40.6,0.2,73.5,27.7,73.5,61.6v139.1C296.6,349.1,263.7,376.6,223.1,376.9z"/>
</svg>
